/* XPM */
static char *monster_right1762381625[] = {
/* columns rows colors chars-per-pixel */
"32 32 2 1 ",
"  c black",
". c #F50000",
/* pixels */
"................................",
".                              .",
".                              .",
".                              .",
".                              .",
".                       .      .",
".                        .     .",
".                         .    .",
".                          .   .",
".                       ... .  .",
".                       ...    .",
".                       ...    .",
".                              .",
".                              .",
".                              .",
".                              .",
".                              .",
".                              .",
".                              .",
".                              .",
".                         ......",
".                        ..    .",
".                       ..     .",
".                       .      .",
".                      .       .",
".                              .",
".                              .",
".                              .",
".                              .",
".                              .",
".                              .",
"................................"
};
