/* XPM */
static char *crazy_right1762462527[] = {
/* columns rows colors chars-per-pixel */
"32 32 2 1 ",
"  c black",
". c #5CD500",
/* pixels */
"................................",
".                              .",
".                              .",
".                              .",
".                              .",
".                              .",
".                              .",
".                     .     .  .",
".                      .   .   .",
".                       . .    .",
".                        .     .",
".                       . .    .",
".                      .   .   .",
".                     .     .  .",
".                              .",
".                              .",
".                              .",
".                              .",
".                              .",
".                              .",
".                         ......",
".                        ..    .",
".                       ..     .",
".                       .      .",
".                      .       .",
".                              .",
".                              .",
".                              .",
".                              .",
".                              .",
".                              .",
"................................"
};
