/* XPM */
static char *monster_left1762381543[] = {
/* columns rows colors chars-per-pixel */
"32 32 2 1 ",
"  c black",
". c #F50000",
/* pixels */
"................................",
".                              .",
".                              .",
".                              .",
".                              .",
".      .                       .",
".     .                        .",
".    .                         .",
".   .                          .",
".  . ...                       .",
".    ...                       .",
".    ...                       .",
".                              .",
".                              .",
".                              .",
".                              .",
".                              .",
".                              .",
".                              .",
".                              .",
"......                         .",
".    ..                        .",
".     ..                       .",
".      .                       .",
".       .                      .",
".                              .",
".                              .",
".                              .",
".                              .",
".                              .",
".                              .",
"................................"
};
