/* XPM */
static char *crazy1762462452[] = {
/* columns rows colors chars-per-pixel */
"32 32 2 1 ",
"  c black",
". c #5CD500",
/* pixels */
"................................",
".                              .",
".                              .",
".                              .",
".                              .",
".                              .",
".                              .",
".      .     .                 .",
".       .   .      .   .       .",
".        . .        . .        .",
".         .          .         .",
".        . .        . .        .",
".       .   .      .   .       .",
".      .     .                 .",
".                              .",
".                              .",
".                              .",
".                              .",
".                              .",
".                              .",
".          ..........          .",
".         ..        ..         .",
".        ..          ..        .",
".        .            .        .",
".       .              .       .",
".                              .",
".                              .",
".                              .",
".                              .",
".                              .",
".                              .",
"................................"
};
