/* XPM */
static char *New_Piskel1762373234[] = {
/* columns rows colors chars-per-pixel */
"32 32 2 1 ",
"  c #CDCDCD",
". c #EFEFEF",
/* pixels */
"................                ",
"................                ",
"................                ",
"................                ",
"................                ",
"................                ",
"................                ",
"................                ",
"................                ",
"................                ",
"................                ",
"................                ",
"................                ",
"................                ",
"................                ",
"................                ",
"................                ",
"                ................",
"                ................",
"                ................",
"                ................",
"                ................",
"                ................",
"                ................",
"                ................",
"                ................",
"                ................",
"                ................",
"                ................",
"                ................",
"                ................",
"                ................"
};
