/* XPM */
static char *player_right1762382084[] = {
/* columns rows colors chars-per-pixel */
"32 32 2 1 ",
"  c #0B0DFF",
". c white",
/* pixels */
"................................",
".                              .",
".                              .",
".                              .",
".                              .",
".                              .",
".                              .",
".                              .",
".                     .     .  .",
".                     .     .  .",
".                     .     .  .",
".                     .     .  .",
".                      .   .   .",
".                       ...    .",
".                              .",
".                              .",
".                              .",
".                              .",
".                              .",
".                              .",
".                              .",
".                         .   ..",
".                          . . .",
".                           .  .",
".                              .",
".                              .",
".                              .",
".                              .",
".                              .",
".                              .",
".                              .",
"................................"
};
