/* XPM */
static char *player_left1762381994[] = {
/* columns rows colors chars-per-pixel */
"32 32 2 1 ",
"  c #0B0DFF",
". c white",
/* pixels */
"................................",
".                              .",
".                              .",
".                              .",
".                              .",
".                              .",
".                              .",
".                              .",
".  .     .                     .",
".  .     .                     .",
".  .     .                     .",
".  .     .                     .",
".   .   .                      .",
".    ...                       .",
".                              .",
".                              .",
".                              .",
".                              .",
".                              .",
".                              .",
".                              .",
"..   .                         .",
". . .                          .",
".  .                           .",
".                              .",
".                              .",
".                              .",
".                              .",
".                              .",
".                              .",
".                              .",
"................................"
};
