/* XPM */
static char *quest_down1762550502[] = {
/* columns rows colors chars-per-pixel */
"32 32 2 1 ",
"  c #CA9C00",
". c white",
/* pixels */
"................................",
".                              .",
".                              .",
".                              .",
".                              .",
".                              .",
".                              .",
".                              .",
".                              .",
".                              .",
".                              .",
".                              .",
".                              .",
".                              .",
".                              .",
".                              .",
".                  .........   .",
".                  ...   ...   .",
".                  ..  .  ..   .",
".   ................  . .  .   .",
".   ................ .   . .   .",
".   .. ..          .  . .  .   .",
".   .. ..          ..  .  ..   .",
".                  ...   ...   .",
".                  .........   .",
".                              .",
".                              .",
".                              .",
".                              .",
".                              .",
".                              .",
"................................"
};
