/* XPM */
static char *New_Piskel1762372713[] = {
/* columns rows colors chars-per-pixel */
"32 32 2 1 ",
"  c #FFC604",
". c white",
/* pixels */
"................................",
".     .....                    .",
".    .     .                   .",
".    .     .                   .",
".  ...     ...                 .",
". .   .   .   .                .",
". .     .     .                .",
". .    ...    .                .",
". .     .     .                .",
". .   .   .   .                .",
".  ...     ...                 .",
".    .     .                   .",
".    .     .                   .",
".     .....                    .",
".                              .",
".                              .",
".     ....            ....     .",
".    .    .          .    .    .",
".    ...  .          ...  .    .",
".    ...  .          ...  .    .",
".     ....            ....     .",
".                              .",
".                              .",
".                              .",
".                              .",
".         .         .          .",
".          .........           .",
".                              .",
".                              .",
".                              .",
".                              .",
"................................"
};
