/* XPM */
static char *New_Piskel1762374159[] = {
/* columns rows colors chars-per-pixel */
"32 32 2 1 ",
"  c #391600",
". c #7B2300",
/* pixels */
"                                ",
"..... ....... ....... ....... ..",
"..... ....... ....... ....... ..",
"..... ....... ....... ....... ..",
"                                ",
" ....... ....... ....... .......",
" ....... ....... ....... .......",
" ....... ....... ....... .......",
"                                ",
"..... ....... ....... ....... ..",
"..... ....... ....... ....... ..",
"..... ....... ....... ....... ..",
"                                ",
" ....... ....... ....... .......",
" ....... ....... ....... .......",
" ....... ....... ....... .......",
"                                ",
"..... ....... ....... ....... ..",
"..... ....... ....... ....... ..",
"..... ....... ....... ....... ..",
"                                ",
" ....... ....... ....... .......",
" ....... ....... ....... .......",
" ....... ....... ....... .......",
"                                ",
"..... ....... ....... ....... ..",
"..... ....... ....... ....... ..",
"..... ....... ....... ....... ..",
"                                ",
" ....... ....... ....... .......",
" ....... ....... ....... .......",
" ....... ....... ....... ......."
};
